<svg width="32" height="32" viewBox="0 0 32 32" xmlns="http://www.w3.org/2000/svg"><title>29DAD7D9-9D18-4B2E-810A-D99A9F002B3D</title><g fill="none" fill-rule="evenodd"><path d="M31 16c0 8.288-6.712 15-15 15-8.287 0-15-6.712-15-15C1 7.713 7.713 1 16 1c8.288 0 15 6.713 15 15z" stroke="#FFF"/><g fill="#FFF"><path d="M13.8 20.5c.3 0 .43-.14.6-.3.26-.25 3.6-3.5 3.6-3.5l-2.05-.5-1.9 1.2-.25 3v.1z"/><path d="M14 17.44l4.84 3.57c.55.3.95.15 1.09-.51l1.97-9.28c.2-.81-.31-1.17-.84-.93L9.5 14.75c-.79.32-.78.76-.14.95l2.97.93 6.87-4.33c.32-.2.62-.09.38.13L14 17.44z"/></g></g></svg>